HIERARCHY
ROOT Hips
{
	OFFSET 0.000000 71.427986 0.000000
	CHANNELS 6 Xposition Yposition Zposition Xrotation Yrotation Zrotation
	JOINT Pelvis
	{
		OFFSET 0.000000 0.000000 0.000000
		CHANNELS 3 Xrotation Yrotation Zrotation
		JOINT LeftUpLeg
		{
			OFFSET 6.797100 -2.508499 -1.318700
			CHANNELS 3 Xrotation Yrotation Zrotation
			JOINT LeftLeg
			{
				OFFSET 0.069008 -29.241863 0.690200
				CHANNELS 3 Xrotation Yrotation Zrotation
				JOINT LeftFoot
				{
					OFFSET -0.069008 -29.568123 -0.266800
					CHANNELS 3 Xrotation Yrotation Zrotation
					JOINT LeftToeBase
					{
						OFFSET 3.145500 -8.631000 16.059900
						CHANNELS 3 Xrotation Yrotation Zrotation
						End Site
						{
							OFFSET 0.000000 18.501587 0.000000
						}
					}
				}
			}
			JOINT Left_ShortSleeve
			{
				OFFSET 0.265923 -10.480953 1.153800
				CHANNELS 3 Xrotation Yrotation Zrotation
				End Site
				{
					OFFSET 1.725763 19.823879 0.000000
				}
			}
		}
		JOINT RightUpLeg
		{
			OFFSET -6.797100 -2.508499 -1.318700
			CHANNELS 3 Xrotation Yrotation Zrotation
			JOINT RightLeg
			{
				OFFSET -0.082453 -29.241932 0.688000
				CHANNELS 3 Xrotation Yrotation Zrotation
				JOINT RightFoot
				{
					OFFSET 0.082453 -29.568058 -0.264600
					CHANNELS 3 Xrotation Yrotation Zrotation
					JOINT RightToeBase
					{
						OFFSET -3.115300 -8.682800 16.113400
						CHANNELS 3 Xrotation Yrotation Zrotation
						End Site
						{
							OFFSET 0.000000 18.567114 0.000000
						}
					}
				}
			}
			JOINT Right_ShortSleeve
			{
				OFFSET -0.265923 -10.480953 1.153800
				CHANNELS 3 Xrotation Yrotation Zrotation
				End Site
				{
					OFFSET -1.725766 19.823910 0.000000
				}
			}
		}
	}
	JOINT Spine
	{
		OFFSET 0.000000 13.368103 0.470500
		CHANNELS 3 Xrotation Yrotation Zrotation
		JOINT Spine1
		{
			OFFSET 0.147000 13.837402 0.538800
			CHANNELS 3 Xrotation Yrotation Zrotation
			JOINT Spine2
			{
				OFFSET 0.168000 16.242897 -1.435500
				CHANNELS 3 Xrotation Yrotation Zrotation
				JOINT Neck
				{
					OFFSET 0.217200 18.631500 -1.679100
					CHANNELS 3 Xrotation Yrotation Zrotation
					JOINT Head
					{
						OFFSET 0.000000 6.599396 1.385900
						CHANNELS 3 Xrotation Yrotation Zrotation
						JOINT Hat
						{
							OFFSET -0.532200 27.220596 -10.096100
							CHANNELS 3 Xrotation Yrotation Zrotation
							End Site
							{
								OFFSET 0.000000 22.029861 0.000000
							}
						}
						JOINT HairD
						{
							OFFSET -10.777400 17.437393 -1.325900
							CHANNELS 3 Xrotation Yrotation Zrotation
							JOINT HairD1
							{
								OFFSET -3.290299 -11.051193 1.062200
								CHANNELS 3 Xrotation Yrotation Zrotation
								End Site
								{
									OFFSET 0.000000 11.579437 0.000000
								}
							}
						}
						JOINT HairB
						{
							OFFSET -10.777400 17.437393 1.467900
							CHANNELS 3 Xrotation Yrotation Zrotation
							JOINT HairB1
							{
								OFFSET -1.561200 -12.956299 3.590200
								CHANNELS 3 Xrotation Yrotation Zrotation
								End Site
								{
									OFFSET 0.000000 13.534866 0.000000
								}
							}
						}
						JOINT HairA
						{
							OFFSET 9.713100 17.437393 1.467900
							CHANNELS 3 Xrotation Yrotation Zrotation
							JOINT HairA1
							{
								OFFSET 1.561200 -12.956299 3.590200
								CHANNELS 3 Xrotation Yrotation Zrotation
								End Site
								{
									OFFSET 0.000000 13.534866 0.000000
								}
							}
						}
						JOINT HairC
						{
							OFFSET 9.713100 17.437393 -1.325900
							CHANNELS 3 Xrotation Yrotation Zrotation
							JOINT HairC1
							{
								OFFSET 3.290300 -11.051193 1.062200
								CHANNELS 3 Xrotation Yrotation Zrotation
								End Site
								{
									OFFSET 0.000000 11.579437 0.000000
								}
							}
						}
					}
				}
				JOINT LeftShoulder
				{
					OFFSET 5.101800 15.108002 -2.763700
					CHANNELS 3 Xrotation Yrotation Zrotation
					JOINT LeftArm
					{
						OFFSET 9.825497 2.506317 -1.597400
						CHANNELS 3 Xrotation Yrotation Zrotation
						JOINT LeftForeArm
						{
							OFFSET 21.966244 0.000000 0.000000
							CHANNELS 3 Xrotation Yrotation Zrotation
							JOINT LeftHand
							{
								OFFSET 33.879036 0.000000 0.000000
								CHANNELS 3 Xrotation Yrotation Zrotation
								JOINT LeftHandThumb1
								{
									OFFSET 6.715286 -2.359680 3.363841
									CHANNELS 3 Xrotation Yrotation Zrotation
									JOINT LeftHandThumb2
									{
										OFFSET 2.507072 -1.447464 1.447461
										CHANNELS 3 Xrotation Yrotation Zrotation
										JOINT LeftHandThumb3
										{
											OFFSET 2.898338 -1.673355 1.673357
											CHANNELS 3 Xrotation Yrotation Zrotation
											End Site
											{
												OFFSET -0.295959 3.727692 -0.131651
											}
										}
									}
								}
								JOINT LeftHandIndex1
								{
									OFFSET 14.190811 -0.254547 3.840278
									CHANNELS 3 Xrotation Yrotation Zrotation
									JOINT LeftHandIndex2
									{
										OFFSET 3.551727 0.000000 -0.000000
										CHANNELS 3 Xrotation Yrotation Zrotation
										JOINT LeftHandIndex3
										{
											OFFSET 2.894196 0.000000 0.000000
											CHANNELS 3 Xrotation Yrotation Zrotation
											End Site
											{
												OFFSET -1.000603 2.690872 0.366626
											}
										}
									}
								}
								JOINT LeftHandMiddle1
								{
									OFFSET 13.776489 0.000000 0.000000
									CHANNELS 3 Xrotation Yrotation Zrotation
									JOINT LeftHandMiddle2
									{
										OFFSET 3.438232 0.000000 0.000000
										CHANNELS 3 Xrotation Yrotation Zrotation
										JOINT LeftHandMiddle3
										{
											OFFSET 3.691551 0.000000 0.000000
											CHANNELS 3 Xrotation Yrotation Zrotation
											End Site
											{
												OFFSET -1.082298 3.499527 0.457670
											}
										}
									}
								}
								JOINT LeftHandRing1
								{
									OFFSET 13.966164 -0.268127 -3.067488
									CHANNELS 3 Xrotation Yrotation Zrotation
									JOINT LeftHandRing2
									{
										OFFSET 3.162567 0.000000 0.000000
										CHANNELS 3 Xrotation Yrotation Zrotation
										JOINT LeftHandRing3
										{
											OFFSET 3.324348 0.000000 0.000000
											CHANNELS 3 Xrotation Yrotation Zrotation
											End Site
											{
												OFFSET -0.861900 3.184998 0.405154
											}
										}
									}
								}
								JOINT LeftHandPinky1
								{
									OFFSET 13.131393 -0.168503 -5.746925
									CHANNELS 3 Xrotation Yrotation Zrotation
									JOINT LeftHandPinky2
									{
										OFFSET 2.849182 0.000000 0.000000
										CHANNELS 3 Xrotation Yrotation Zrotation
										JOINT LeftHandPinky3
										{
											OFFSET 2.805038 0.000000 0.000000
											CHANNELS 3 Xrotation Yrotation Zrotation
											End Site
											{
												OFFSET -0.882500 2.642609 0.325652
											}
										}
									}
								}
							}
							JOINT Left_Sleeve
							{
								OFFSET 6.592125 -0.646545 0.805568
								CHANNELS 3 Xrotation Yrotation Zrotation
								End Site
								{
									OFFSET -0.000179 20.275787 -0.000000
								}
							}
						}
					}
				}
				JOINT RightShoulder
				{
					OFFSET -5.731700 15.108002 -2.763700
					CHANNELS 3 Xrotation Yrotation Zrotation
					JOINT RightArm
					{
						OFFSET -9.825497 2.506317 -1.597400
						CHANNELS 3 Xrotation Yrotation Zrotation
						JOINT RightForeArm
						{
							OFFSET -21.966242 0.000000 0.000000
							CHANNELS 3 Xrotation Yrotation Zrotation
							JOINT RightHand
							{
								OFFSET -33.879032 0.000000 0.000000
								CHANNELS 3 Xrotation Yrotation Zrotation
								JOINT RightHandThumb1
								{
									OFFSET -6.715286 -2.359680 3.363841
									CHANNELS 3 Xrotation Yrotation Zrotation
									JOINT RightHandThumb2
									{
										OFFSET -2.507072 -1.447464 1.447461
										CHANNELS 3 Xrotation Yrotation Zrotation
										JOINT RightHandThumb3
										{
											OFFSET -2.898338 -1.673355 1.673357
											CHANNELS 3 Xrotation Yrotation Zrotation
											End Site
											{
												OFFSET 0.295959 3.727692 -0.131651
											}
										}
									}
								}
								JOINT RightHandIndex1
								{
									OFFSET -14.190811 -0.254547 3.840278
									CHANNELS 3 Xrotation Yrotation Zrotation
									JOINT RightHandIndex2
									{
										OFFSET -3.551727 0.000000 -0.000000
										CHANNELS 3 Xrotation Yrotation Zrotation
										JOINT RightHandIndex3
										{
											OFFSET -2.894196 0.000000 0.000000
											CHANNELS 3 Xrotation Yrotation Zrotation
											End Site
											{
												OFFSET 1.000603 2.690872 0.366626
											}
										}
									}
								}
								JOINT RightHandMiddle1
								{
									OFFSET -13.776489 0.000000 0.000000
									CHANNELS 3 Xrotation Yrotation Zrotation
									JOINT RightHandMiddle2
									{
										OFFSET -3.438232 0.000000 0.000000
										CHANNELS 3 Xrotation Yrotation Zrotation
										JOINT RightHandMiddle3
										{
											OFFSET -3.691551 0.000000 0.000000
											CHANNELS 3 Xrotation Yrotation Zrotation
											End Site
											{
												OFFSET 1.082298 3.499527 0.457670
											}
										}
									}
								}
								JOINT RightHandRing1
								{
									OFFSET -13.966164 -0.268127 -3.067488
									CHANNELS 3 Xrotation Yrotation Zrotation
									JOINT RightHandRing2
									{
										OFFSET -3.162567 0.000000 0.000000
										CHANNELS 3 Xrotation Yrotation Zrotation
										JOINT RightHandRing3
										{
											OFFSET -3.324348 0.000000 0.000000
											CHANNELS 3 Xrotation Yrotation Zrotation
											End Site
											{
												OFFSET 0.861900 3.184998 0.405154
											}
										}
									}
								}
								JOINT RightHandPinky1
								{
									OFFSET -13.131393 -0.168503 -5.746925
									CHANNELS 3 Xrotation Yrotation Zrotation
									JOINT RightHandPinky2
									{
										OFFSET -2.849182 0.000000 0.000000
										CHANNELS 3 Xrotation Yrotation Zrotation
										JOINT RightHandPinky3
										{
											OFFSET -2.805038 0.000000 0.000000
											CHANNELS 3 Xrotation Yrotation Zrotation
											End Site
											{
												OFFSET 0.882500 2.642609 0.325652
											}
										}
									}
								}
							}
							JOINT Right_Sleeve
							{
								OFFSET -6.592125 -0.646545 0.805568
								CHANNELS 3 Xrotation Yrotation Zrotation
								End Site
								{
									OFFSET 0.000179 20.275787 -0.000000
								}
							}
						}
					}
				}
				JOINT Bind_Right_JacketString
				{
					OFFSET -3.534800 11.969597 7.200700
					CHANNELS 3 Xrotation Yrotation Zrotation
					JOINT Bind_Right_JacketString1
					{
						OFFSET -0.319900 -6.102600 2.794100
						CHANNELS 3 Xrotation Yrotation Zrotation
						End Site
						{
							OFFSET 0.000000 6.719452 0.000000
						}
					}
				}
				JOINT Bind_Left_JacketString
				{
					OFFSET 2.904800 11.969597 7.200700
					CHANNELS 3 Xrotation Yrotation Zrotation
					JOINT Bind_Left_JacketString1
					{
						OFFSET 0.364800 -5.904503 3.186800
						CHANNELS 3 Xrotation Yrotation Zrotation
						End Site
						{
							OFFSET 0.000000 6.719513 0.000000
						}
					}
				}
				JOINT HairE
				{
					OFFSET 5.915200 17.612701 -11.592200
					CHANNELS 3 Xrotation Yrotation Zrotation
					JOINT HairE1
					{
						OFFSET 0.289200 -7.171898 -1.284500
						CHANNELS 3 Xrotation Yrotation Zrotation
						End Site
						{
							OFFSET 0.000000 7.291756 0.000000
						}
					}
				}
				JOINT HairF
				{
					OFFSET -0.864800 17.612701 -11.592200
					CHANNELS 3 Xrotation Yrotation Zrotation
					JOINT HairF1
					{
						OFFSET 0.000000 -14.087097 -2.127501
						CHANNELS 3 Xrotation Yrotation Zrotation
						End Site
						{
							OFFSET 0.000000 14.246841 0.000000
						}
					}
				}
				JOINT HairG
				{
					OFFSET -8.087700 17.612701 -11.592200
					CHANNELS 3 Xrotation Yrotation Zrotation
					JOINT HairG1
					{
						OFFSET -0.293600 -6.081398 -0.910100
						CHANNELS 3 Xrotation Yrotation Zrotation
						End Site
						{
							OFFSET 0.000000 6.156120 0.000000
						}
					}
				}
			}
		}
	}
	JOINT Pouch
	{
		OFFSET 0.000000 4.394501 10.847300
		CHANNELS 3 Xrotation Yrotation Zrotation
		End Site
		{
			OFFSET 0.000000 21.880577 0.000000
		}
	}
	JOINT Bag
	{
		OFFSET -13.229000 4.813004 -0.593300
		CHANNELS 3 Xrotation Yrotation Zrotation
		End Site
		{
			OFFSET 0.000000 21.880577 0.000000
		}
	}
	JOINT OccupyGuyFacialAnim_Joint
	{
		OFFSET 1.000000 -70.206398 -1.655000
		CHANNELS 3 Xrotation Yrotation Zrotation
		End Site
		{
			OFFSET 0.000000 21.880577 0.000000
		}
	}
}
MOTION
Frames: 4
Frame Time: 0.033333
-0.265420 69.882088 0.240272 -0.282686 0.033226 -2.736429 0.000000 0.000000 -0.000000 -16.838681 12.436623 11.870534 23.096505 11.749527 1.002086 -5.416679 2.871919 -7.406129 -0.000000 -0.000002 0.000000 -0.000000 0.000001 -0.000000 -3.356651 -4.138436 2.928887 18.654676 -2.806256 3.841330 -14.857036 0.093188 -3.450004 0.000000 0.000000 0.000000 0.000001 -0.000001 -0.000000 0.565551 -1.417394 0.731068 0.885029 -0.160728 2.641836 0.868056 0.312628 2.544624 1.240589 -0.362923 0.178344 1.582232 0.547390 -5.747847 0.000000 -0.000000 0.000000 0.000000 -0.000000 0.000000 0.000000 -0.000000 0.000000 0.000000 -0.000000 0.000000 0.000000 -0.000000 0.000000 0.000000 -0.000000 0.000000 0.000000 -0.000000 0.000000 0.000000 -0.000000 0.000000 0.000000 -0.000000 0.000000 0.000031 0.000026 -0.312833 3.284005 -25.852128 -73.291762 2.210877 -20.457897 0.701162 -31.890143 -2.756906 2.767038 15.772698 2.736728 17.226044 -2.103372 31.049285 -7.355455 -0.000000 0.000001 -0.000001 2.383036 3.649510 -8.471838 -2.154243 2.456756 -18.676742 0.000001 -0.000002 -0.000002 -1.973186 5.700550 -13.648139 0.260894 5.095220 -26.987730 -0.000000 0.000000 0.000002 -3.264622 8.556717 -11.754344 4.032630 4.051356 -33.265104 -0.000001 0.000000 -0.000001 -6.474945 11.348991 -23.245154 10.714830 2.545209 -34.824614 -0.000001 0.000001 0.000003 -0.000001 0.000001 -0.000001 0.000587 0.000045 0.310252 5.328362 -3.221518 75.188724 -0.286984 18.990781 0.143965 -7.879890 -10.226974 5.197426 15.771880 -2.756627 -17.209201 -2.078765 -31.040898 7.363413 0.000002 0.000000 0.000002 2.375482 -3.652206 8.489265 -2.145641 -2.460108 18.674898 0.000000 0.000000 0.000000 -1.977261 -5.698762 13.665652 0.277605 -5.077109 26.990423 0.000001 -0.000000 0.000001 -4.980422 -10.115181 10.784975 4.039014 -4.034241 33.265074 -0.000001 -0.000001 -0.000000 -6.469194 -11.333332 23.255421 10.703803 -2.539544 34.822668 0.000000 0.000001 0.000002 -0.000000 -0.000000 0.000001 -0.000000 0.000000 -0.000000 -0.000000 0.000000 -0.000000 -0.000000 0.000000 -0.000000 -0.000000 0.000000 -0.000000 -0.000000 0.000000 -0.000000 -0.000000 0.000000 -0.000000 -0.000000 0.000000 -0.000000 -0.000000 0.000000 -0.000000 -0.000000 0.000000 -0.000000 -0.000000 0.000000 -0.000000 0.000000 0.000000 -0.000000 0.000000 0.000000 -0.000000 0.000000 0.000000 -0.000000 
-0.328866 69.892517 0.259034 -0.593020 -0.166117 -2.628899 0.000000 0.000000 0.000000 -16.357497 12.551112 11.825143 22.916623 11.887507 1.022984 -5.351968 2.873752 -7.509427 0.000000 0.000002 -0.000000 -0.000000 0.000000 -0.000000 -3.092407 -3.886420 2.912091 18.719665 -2.669357 3.808642 -14.909922 -0.080843 -3.529765 -0.000000 0.000000 0.000000 0.000000 -0.000000 0.000001 0.684607 -1.378386 0.643230 0.879123 -0.152199 2.680179 0.861164 0.320270 2.582967 1.171117 -0.322661 0.070557 1.597335 0.536790 -5.648443 0.000000 -0.000000 0.000000 0.000000 -0.000000 0.000000 0.000000 -0.000000 0.000000 0.000000 -0.000000 0.000000 0.000000 -0.000000 -0.000000 0.000000 -0.000000 0.000000 0.000000 -0.000000 -0.000000 0.000000 -0.000000 0.000000 0.000000 -0.000000 0.000000 0.022421 -0.244698 -0.018936 4.693772 -26.148005 -72.914114 5.736448 -20.176106 1.255493 -32.182499 -1.959744 2.777823 15.430022 1.714712 17.134120 -2.170725 30.538097 -7.422641 -0.000000 -0.000000 -0.000002 2.382907 3.650790 -8.535124 -2.105104 2.400618 -18.745755 0.000001 0.000001 -0.000002 -1.934125 5.750656 -13.718093 0.251040 4.995032 -27.042385 0.000002 -0.000001 0.000000 -3.249294 8.568977 -11.843101 3.931181 4.079144 -33.291636 0.000000 0.000001 0.000000 -6.457616 11.350799 -23.331387 10.618975 2.472403 -34.848025 -0.000000 -0.000001 -0.000003 0.000005 0.000002 -0.000003 0.251738 0.274762 0.573820 5.456219 -3.064514 74.641571 0.222321 19.175187 0.129180 -8.052749 -9.888902 4.358587 15.771875 -2.756626 -17.209217 -2.085507 -31.012621 7.372472 0.000000 0.000002 0.000002 2.574824 -3.939103 9.345423 -2.108847 -2.491684 19.518705 -0.000000 0.000000 0.000000 -1.975184 -5.837056 14.100241 0.282821 -5.078039 27.163758 -0.000001 -0.000001 -0.000001 -4.970412 -10.247976 11.070616 4.038580 -4.024869 33.403047 0.000000 -0.000001 0.000002 -6.443542 -11.462787 23.369253 10.704804 -2.516225 34.945976 -0.000001 0.000001 0.000001 -0.000000 -0.000001 0.000001 -0.000000 0.000000 -0.000000 -0.000000 -0.000000 -0.000000 -0.000000 0.000000 -0.000000 -0.000000 0.000000 -0.000000 -0.000000 0.000000 -0.000000 -0.000000 -0.000000 -0.000000 -0.000000 0.000000 -0.000000 -0.000000 0.000000 -0.000000 -0.000000 0.000000 -0.000000 -0.000000 -0.000000 -0.000000 0.000000 0.000000 0.000000 0.000000 0.000000 0.000000 0.000000 0.000000 0.000000 
-0.416800 69.894814 0.279118 -0.993668 -0.453745 -2.507617 -0.000000 -0.000000 0.000000 -15.799913 12.667089 11.768771 22.782538 12.117340 1.083909 -5.298745 2.887283 -7.670444 -0.000000 0.000000 0.000000 0.000001 -0.000001 -0.000001 -2.792477 -3.765193 2.861607 18.911629 -2.485212 3.773201 -15.019407 -0.081349 -3.611712 -0.000000 0.000000 -0.000000 0.000000 0.000000 0.000000 0.929822 -1.301698 0.561420 0.902362 -0.117148 2.693823 0.884047 0.344779 2.598412 1.156244 -0.221158 -0.068048 1.334037 0.616960 -5.664237 0.000000 0.000000 -0.000000 0.000000 0.000000 -0.000000 0.000000 0.000000 -0.000000 0.000000 0.000000 0.000000 -0.000000 0.000000 0.000000 0.000000 0.000000 0.000000 -0.000000 0.000000 0.000000 0.000000 0.000000 -0.000000 0.000000 0.000000 -0.000000 0.116465 -0.645927 0.230511 7.258655 -26.766835 -71.533377 13.901779 -19.370825 2.718864 -32.771934 -1.172512 3.656563 15.088359 0.622271 17.015338 -2.252832 29.995992 -7.483291 -0.000001 0.000001 -0.000000 2.374713 3.651290 -8.548458 -2.051709 2.342330 -18.856081 0.000001 0.000002 -0.000002 -2.628450 5.976959 -13.635280 0.243173 4.888773 -27.154752 0.000000 0.000001 0.000001 -3.274957 8.653081 -11.884220 3.826993 4.111233 -33.335281 0.000000 0.000000 0.000002 -6.543992 11.392325 -23.351858 10.456835 2.439753 -34.855087 0.000000 0.000000 0.000005 -0.000001 0.000000 -0.000001 0.803424 0.890962 1.020478 5.301538 -2.583281 73.651310 1.044168 18.797843 0.192493 -8.335957 -8.868232 3.362081 15.771390 -2.756782 -17.208972 -2.072423 -31.067546 7.354871 -0.000001 -0.000003 -0.000000 2.735112 -4.097510 10.057744 -2.089195 -2.523838 20.226296 -0.000000 -0.000000 0.000002 -1.972648 -5.880388 14.683493 0.283319 -5.078130 27.179916 0.000000 0.000000 -0.000001 -4.981362 -10.278202 11.379782 4.038615 -4.025680 33.392392 -0.000001 -0.000001 0.000002 -6.475830 -11.493122 23.346941 10.704429 -2.513418 34.928283 -0.000001 -0.000000 0.000009 -0.000000 -0.000000 0.000000 -0.000000 0.000000 -0.000000 -0.000000 0.000000 -0.000000 -0.000000 0.000000 -0.000000 -0.000000 0.000000 -0.000000 -0.000000 0.000000 -0.000000 -0.000000 0.000000 -0.000000 -0.000000 0.000000 -0.000000 -0.000000 0.000000 -0.000000 -0.000000 0.000000 -0.000000 -0.000000 0.000000 -0.000000 -0.000000 -0.000000 0.000000 -0.000000 -0.000000 0.000000 -0.000000 -0.000000 0.000000 
-0.534966 69.889862 0.303006 -1.398422 -0.795207 -2.414862 0.000000 0.000000 0.000000 -15.327904 12.785730 11.772886 22.818120 12.348805 1.163150 -5.324833 2.907783 -7.798514 -0.000000 0.000000 -0.000000 0.000000 0.000001 0.000001 -2.502960 -3.581974 2.866621 19.132654 -2.307942 3.744836 -15.145367 -0.085816 -3.727004 0.000000 0.000000 -0.000000 -0.000000 -0.000000 -0.000000 1.172403 -1.193592 0.477048 0.986031 -0.073561 2.761181 0.966815 0.375461 2.669409 1.125862 -0.016592 -0.256663 0.935406 0.801749 -5.733842 0.000000 -0.000000 -0.000000 0.000000 -0.000000 -0.000000 0.000000 -0.000000 -0.000000 0.000000 -0.000000 -0.000000 0.000000 -0.000000 -0.000000 0.000000 -0.000000 -0.000000 0.000000 -0.000000 -0.000000 0.000000 -0.000000 -0.000000 0.000000 -0.000000 -0.000000 0.285288 -1.052140 0.460294 10.896035 -27.890620 -69.284483 24.967956 -18.245520 4.019536 -33.539538 -0.266723 5.460791 14.926714 -0.598115 16.894201 -2.654512 29.639698 -7.596101 -0.000000 0.000002 0.000003 2.162015 3.555069 -7.851946 -1.939159 2.330030 -20.380718 -0.000002 0.000001 -0.000002 -3.976809 6.275597 -12.576829 0.376906 4.768956 -28.983833 0.000002 0.000001 0.000001 -4.468796 9.081236 -11.499571 3.806720 4.166642 -34.028962 -0.000001 0.000001 -0.000002 -8.465028 12.083690 -22.532570 8.978250 3.316444 -34.770546 -0.000002 -0.000002 0.000001 0.000001 0.000000 0.000001 1.444111 1.610624 1.255322 5.188626 -2.049623 72.790747 1.875415 18.617926 0.280979 -8.603623 -7.837844 2.346558 15.762664 -2.759532 -17.205699 -2.043812 -31.188631 7.316232 0.000000 -0.000002 0.000002 2.884506 -4.208155 10.732654 -2.080766 -2.561939 20.900256 -0.000001 0.000000 -0.000001 -1.984240 -5.891194 15.340415 0.281966 -5.077893 27.135114 -0.000001 -0.000001 0.000003 -5.001783 -10.273896 11.699490 4.038814 -4.029935 33.329288 -0.000000 -0.000001 -0.000000 -6.527714 -11.489472 23.273082 10.702594 -2.513648 34.864458 -0.000000 0.000000 0.000001 -0.000000 -0.000001 -0.000002 -0.000000 0.000000 0.000000 0.000000 0.000000 0.000000 -0.000000 0.000000 0.000000 -0.000000 0.000000 0.000000 -0.000000 0.000000 0.000000 0.000000 0.000000 0.000000 -0.000000 0.000000 0.000000 -0.000000 0.000000 0.000000 -0.000000 0.000000 0.000000 0.000000 0.000000 0.000000 0.000000 0.000000 0.000000 0.000000 0.000000 0.000000 0.000000 0.000000 0.000000 
